<?xml version="1.0" encoding="UTF-8"?>
<svg id="Layer_1" xmlns="http://www.w3.org/2000/svg" version="1.1" viewBox="0 0 1920 1080">
  <!-- Generator: Adobe Illustrator 29.0.1, SVG Export Plug-In . SVG Version: 2.1.0 Build 192)  -->
  <defs>
    <style>
      .st0 {
        fill: #1b7a79;
      }

      .st1 {
        fill: #187979;
      }

      .st2 {
        fill: #fefefe;
      }

      .st3 {
        fill: #177878;
      }
    </style>
  </defs>
  <polygon class="st2" points="513.65 218 513.64 779.87 1295.82 779.85 1295.82 783.5 510 783.5 510 218 513.65 218"/>
  <g>
    <path class="st1" d="M731.87,328.19c77.58.74,155.79-3.48,233.34-.89,8.64.29,16.61,3.49,25.27,3.96,16.5.9,35.69-2.14,51.52-.35,20.46,2.31,35.96,30.04,7.29,33.21-88.83-4.45-182.39,5.38-270.63-.19-20.89-1.32-77.28-7.51-46.8-35.73Z"/>
    <path class="st3" d="M1045.46,436.9c11.36,1.97,28.25,32.84,14.62,32.84h-321.64c-9.49,0-20.43-32.84-12.79-32.84h319.81Z"/>
    <path class="st0" d="M1061.9,579.19h-319.81c-9.34,0-29.08-32.84-14.62-32.84h321.64c4.24,0,21.54,25.05,12.79,32.84Z"/>
  </g>
</svg>
