<?xml version="1.0" encoding="UTF-8"?>
<svg id="Layer_1" data-name="Layer 1" xmlns="http://www.w3.org/2000/svg" viewBox="0 0 1232.21 366.12">
  <defs>
    <style>
      .cls-1 {
        fill: #81cfd1;
      }

      .cls-2 {
        fill: #2ea166;
      }

      .cls-3 {
        fill: #127878;
      }

      .cls-4 {
        fill: #3da56d;
      }

      .cls-5 {
        fill: #1a7a7a;
      }
    </style>
  </defs>
  <path class="cls-1" d="M41.1,128.33c14.21-1.68,24.34,8.06,34.61,18.74,14.26,14.83,27.24,12.16,34.53-6.13,6-15.03-2.22-26.43-20.56-27.2-10.41-.44-20.64.24-30.26-5.44-16.44-9.71-27.08-31.68-21.78-48.32,5.27-16.55,17.84-21.43,33.47-19.86,17.9,1.79,34.78,18.9,35.98,37.44.7,10.83.82,21.66,5.32,31.68,4.05,9,9.53,14.9,20.14,9.15,9.48-5.14,22.22-7.32,16.53-23.9-3.19-9.28-8.99-16.37-15.33-23.42-15.39-17.08-16.08-41.59-1.63-59,9.81-11.82,22.13-15.67,36.05-8.36,13.96,7.32,22.99,32.17,17.84,48.24-3.35,10.45-9.26,19.21-17.25,26.58-7.88,7.27-11.99,16.7-9.04,27.4,2.84,10.3,14.08,11.23,21.11,12.35,13.85,2.2,18.04-9.59,18.16-21.92.14-14.86.89-29,11.88-40.6,13.97-14.74,31.79-20.67,46.22-13.21,13.36,6.91,16.65,19.72,14.84,33.89-2.05,15.99-20.59,34.59-35.88,36.72-4.82.67-9.81.71-14.67.29-11.7-1.01-21.48,3.73-25.49,14.44-3.52,9.41,2.36,20.66,9.01,25.31,10.05,7.04,20.81,1.08,29.69-7.14,21.31-19.76,36.35-22.89,55.94-12.59,12.51,6.58,21.19,15.74,18.49,31.47-2.63,15.32-12.34,25.03-26.52,28.32-17.03,3.94-32.88.55-45.51-13.24-2.1-2.29-3.68-5.28-6.11-7.05-7.85-5.69-18.37-10.48-25.38-4.07-6.49,5.93-12.16,18.02-11,26.31,1.11,7.95,12.09,14.06,22.05,13.49,18.12-1.03,33.87,3.31,46.02,18.28,13.06,16.11,13.73,34.9,1.5,48.18-12.54,13.61-28.67,12.81-45.77-.96-14.42-11.62-19.27-26.65-19.32-44.94-.07-25.03-9.54-30.74-30.47-19.54-11.77,6.3-12.97,17.76-2.64,30.99,5.74,7.35,13.38,13,17.14,22.15,8.78,21.39,3.09,44.19-14.21,55.65-12.54,8.31-26.85,5.2-37.29-8.09-13.03-16.6-12.74-41.99.7-57.88,4.82-5.7,11.47-10.54,14.21-17.15,3.54-8.52,9.46-19.08-4.64-25.63-12.25-5.68-23.1-10.92-30.88,6.5-3.86,8.63-2.97,17.34-3.44,26.16-1.11,20.79-18.59,40.67-38.23,42.26-11.57.93-21.95-3.82-28.24-14.3-8.11-13.52-4.68-27.19,2.96-39.48,10.55-16.99,25.85-23.16,45.52-22.42,21.22.8,27.63-11.41,20.01-31.62-3.49-9.26-9.3-10.59-17.2-9.71-9.88,1.1-16.33,7.82-22.92,14.6-9.98,10.28-21.69,16.44-36.21,13.8C10.72,191.47-1.62,177.07.17,157.54c1.5-16.38,18.93-29.36,40.93-29.2ZM154.37,193.89c19.26.15,33.35-13.82,33.06-32.78-.26-16.96-15.27-32.04-32.38-32.53-17.59-.51-32.79,14.88-32.94,33.36-.14,17.23,14.59,31.82,32.26,31.96Z"/>
  <path class="cls-5" d="M489.89,58.02c4.15,17.73,1.68,33.62,2.54,50.11-8.64-2.15-10.16-10.52-14.1-16.13-11.35-16.18-25.57-27.22-45.03-29.79-20.31-2.68-35.61,7.2-41.14,26.26-4.76,16.41,2.82,32.74,21.03,41.31,12.17,5.73,25.43,8.87,38.02,13.69,20.79,7.95,41.7,16.33,49.09,41.25,12.11,40.84-13.08,77.76-55.61,81.64-14.66,1.34-29.38.99-43.64-3.72-13.1-4.33-26.1-7.15-41.11,5.15,3.31-20.71-5.15-37.21-1.48-56.49,10.22,5.53,13.17,15.19,19.29,21.67,17.8,18.85,37.34,32.64,64.67,26.82,16.27-3.46,25.84-13.5,28.55-30.31,2.92-18.1-4.63-31.4-20.13-38.54-15.53-7.16-31.92-12.31-47.92-18.38-33.78-12.82-47.57-34.81-42.41-67.57,4.22-26.79,29.21-47.24,59.86-49.1,13.01-.79,25.6,1.42,37.98,5.35,10.7,3.4,21.35,5.15,31.54-3.22Z"/>
  <path class="cls-5" d="M900.62,148.58c-8.71,26.16-5.65,52.69-4.62,80.03.82,21.92-1.63,44.77-2.15,67.25-.29,12.46,1.41,23.75,10.22,33.82h-53.53c11.07-14.23,8.31-31.42,8.36-47.94.12-41.96-.21-83.92.19-125.87.12-12.45-1.37-23.68-10.26-35.46,6.62,0,10.97-.02,15.33,0,8.36.05,17.44-2.36,24.91.81,10.38,4.42,2.22,17.82,5.26,26.36,1.42,4,2.98-1.17,4.64-.79.56.58,1.11,1.17,1.65,1.78Z"/>
  <path class="cls-5" d="M1088.04,121.38h57.89c-4.4,20.85,6.68,53.21,35.18,100.55,6.59-35.43,36.76-61.48,23.47-100.65h27.63c-29.16,54.15-48.31,112.96-72.63,169.38-8.71,20.21-17.25,41.8-43.96,41.7-14.85-.06-27.14-12.29-26.06-26.02,1.29-16.37,10.47-23.2,26.98-21.46-2.21,10.79-8.7,23.1,6.22,28.35,13.38,4.71,20.25-5.39,26.02-15.29,9.46-16.22,12.69-31.29,2.47-50.64-21.64-40.94-38.38-84.61-63.21-125.93Z"/>
  <path class="cls-3" d="M1020.94,45.9c16.78,0,37.23-6.25,47.1,1.7,10.56,8.51,3.23,30.85,3.42,47.11.49,41.38.13,82.76.18,124.15.02,14.61.52,29.17,8.49,43.78h-55.17c12.82-31.13,9.71-197.13-4.03-216.73Z"/>
  <path class="cls-5" d="M647.31,152c4.14.69,4.45-2.35,5.67-5.42,8.99-22.67,30.79-33.78,53.18-27.42,19.38,5.5,34.95,29.2,31.97,50.61-2.99,21.53-1.36,43.08-2.05,64.62-.34,10.65,4.08,19.5,9.84,29.1h-56.39c11.28-36.5,6.99-73.71,4.05-110.4-1.12-13.94-19-18.76-31.03-10.68-5,3.36-9.34,7.79-13.96,11.74-.68-.53-1.11-1.25-1.28-2.16Z"/>
  <path class="cls-5" d="M920.53,249.78c23.89,7.55,35.17,1.57,42.94-23.14,6.05-19.23,6.12-39.15,2.44-58.53-5.62-29.63-18.29-36.06-51.17-28.57,7.46-17.16,25.7-25.56,46.63-21.48,33.01,6.44,54.28,42.32,49.66,83.79-4.53,40.68-31.09,66.89-65.69,64.82-11.32-.68-21.42-4.23-29.28-13.19,1.49-1.24,2.97-2.47,4.46-3.71Z"/>
  <path class="cls-5" d="M747.44,139.46c13.31-19.97,29.07-26.08,49.64-20.2,18.57,5.31,26.11,20.1,27.26,38.2,1.68,26.54,2.06,53.19,2.35,79.8.1,9.17,2.06,17.19,9.6,25.57h-57.25c11.92-28.22,5.78-57.85,6.38-86.85.7-33.73-3.34-36.82-37.97-36.52Z"/>
  <path class="cls-3" d="M647.31,152c.17.91.6,1.63,1.28,2.16-.41,23.75-.76,47.52-1.21,71.28-.24,12.62-1.23,25.34,8.93,37.4h-53.19c3.84-47.17,8.53-94.1-3.31-142.38,4.12,0,10.51,0,16.89,0q30.83-.01,30.61,31.54Z"/>
  <path class="cls-3" d="M580.28,263.06h-55.08c5.9-47.34,9.56-93.84-2.93-142.54,12,0,26.18.04,40.35-.01,10.35-.04,7.39,8.11,7.43,13.7.23,30.59.04,61.18.14,91.77.04,12.44-2.29,25.39,10.07,37.08Z"/>
  <path class="cls-2" d="M436.85,303.89c29.08.32,35.33,10.06,22.02,36.11-4.08,7.98,2.37,9.85,4.75,14.14,1.76,3.16,5.6,6.17,1.77,9.62-2.88,2.58-7.4,2.07-10.29-.33-3.23-2.68-5.48-6.63-8.23-9.96-2.69-3.26-4.43-8.33-9.58-7.68-6.24.79-4.45,6.54-4.95,10.58-.6,4.86-1.78,8.75-7.58,8.49-6.92-.31-5.18-5.89-5.27-9.85-.27-10.81-.12-21.64-.1-32.46q.05-18.84,17.46-18.65ZM452.21,320.69c-.8-5.06-7.06-4.42-12.21-5.06-6.81-.85-8.08,3.6-7.93,9.5.22,8.43,5.69,8.61,11.48,8.16,5.62-.44,9.1-3.3,8.66-12.6Z"/>
  <path class="cls-4" d="M486.07,332.1c0-28.93,7.23-34.54,36.09-28.32,3.89.84,7.22,1.47,6.86,6.69-.36,5.35-4.32,4.74-7.81,5.69-6.96,1.9-19.43-5.56-20.1,5.01-.78,12.33,12.05,4.57,18.58,6.65,3.11.99,5.82,1.55,6.23,5.43.57,5.48-2.96,6.12-6.89,6.26-1.22.04-2.51-.21-3.66.1-5.23,1.41-14.67-3.89-14.7,5.7-.03,11.03,10.12,5.08,15.77,6.63,4.72,1.29,12.49-2.96,13.02,5.93.66,10.97-8.27,7.15-13.36,7.12-36.8-.22-29.13,4.68-30.02-32.9Z"/>
  <path class="cls-2" d="M741.63,364.79c-18.88,4.97-23.59-4.35-21.31-21.18.42-3.12.06-6.36.06-9.54,0-31.76,4.41-35.6,34.08-30.21,3.79.69,7.34.79,7.3,6.16-.04,5.35-3.5,5.87-7.38,5.93-1.22.02-2.6-.36-3.65.1-5.84,2.57-17.4-5.92-17.29,6.37.08,9.71,10.62,4.18,16.44,5.5,3.9.88,9.45-1.12,9.32,5.81-.13,6.67-5.45,5.5-9.55,5.71-3.05.16-6.12.04-9.18.14-3.97.13-7.47,1.27-7.49,6.23-.03,5.06,3.79,5.77,7.54,6.24.61.08,1.27-.08,1.83.11,6.74,2.32,19.75-5.45,19.54,6.14-.24,13.07-13.92,3.46-20.26,6.49Z"/>
  <path class="cls-2" d="M800.61,302.51c3.42.5,6.42,1,9.43,1.37,5.45.68,12.34,1.89,11.84,8.36-.71,9.14-7.56,4.37-12.57,3.73-3.85-.49-9.58-3.52-11.35,1.75-2.24,6.64,4.07,8.11,8.58,9.42,13.55,3.93,22.36,11.52,16.81,27.24-4.05,11.47-22.37,14.05-35.46,5.93-2.93-1.82-7.29-3.39-5.44-8.37,1.81-4.85,4.97-6.72,10.03-3.71,3.1,1.84,6.71,2.8,10.16,3.93,3.38,1.11,6.03-.48,7.33-3.57,1.63-3.87-1.39-5.87-4.02-7.19-3.77-1.89-7.96-2.89-11.76-4.74-7.66-3.73-13.07-9.05-11.38-19.02,1.81-10.7,8.95-14.19,17.79-15.14Z"/>
  <path class="cls-4" d="M655.23,334.63c-.02-3.81-.76-7.82.14-11.38,1.7-6.76-5.89-19.07,7.67-19.02,13.55.05,30.65-6.55,37.33,14.02,4.89,15.05-1.41,25.41-17.55,28.31-7.12,1.28-15.22-.35-14.05,11.67.43,4.43-2.65,6.84-7.02,6.67-5.89-.23-6.49-4.62-6.51-9.33-.02-6.98,0-13.96-.02-20.94ZM677.94,335.2c3.98.15,8.94-1.09,9.83-8.52.91-7.51-3.24-9.79-9.46-10.69-5.79-.84-9.71.25-9.2,7.36.36,5.07-2.24,12.21,8.82,11.84Z"/>
  <path class="cls-5" d="M547.58,48.3c15.2.18,26.83,12.22,25.19,25.92-1.78,14.89-12.15,21.45-25.43,22.11-11.84.59-22.78-12.52-22.07-25,.89-15.58,10.25-21.83,22.31-23.03Z"/>
  <path class="cls-2" d="M578.97,365.18c-13.09-1.46-23.54-5.64-28.77-18.37-5.37-13.06-3.24-25.18,6.03-35.13,9.47-10.15,21.69-10.82,34.05-6.94,4.54,1.42,10.14,4.66,8.5,10.45-2.22,7.81-7.39,5.22-13.04,2.44-7.76-3.82-15.8-2.72-21.21,5.1-4.67,6.76-4.95,14.57-.44,21.46,4.62,7.07,11.64,8.51,19.48,6.35,5.2-1.43,12.5-8.63,14.95,1.06,2.31,9.14-7.93,9.01-13.41,11.89-2.09,1.1-4.63,1.3-6.15,1.69Z"/>
  <path class="cls-2" d="M620.74,334.74c0-6.94-.12-13.88.03-20.81.09-4.23-.69-9.23,5.65-9.68,6.25-.44,6.58,3.91,6.57,8.59,0,14.51.03,29.02-.05,43.52-.02,3.89-.53,7.68-5.5,7.96-6.17.34-6.64-4.1-6.68-8.77-.06-6.94-.02-13.88-.02-20.81Z"/>
  <path class="cls-5" d="M747.88,144.42c-.45.41-1.64,1.48-2.82,2.56-.59-1.44-1.58-2.88-1.61-4.33-.02-.91,1.67-2.76,2.13-2.61,1.36.42,3.9.49,2.3,4.39Z"/>
  <path class="cls-5" d="M907.47,146.81c1.33-2.44,2.66-4.87,3.99-7.31.82.68,2.43,1.83,2.35,1.98-1.35,2.44-2.9,4.76-4.41,7.1-.63-.6-1.27-1.2-1.92-1.78Z"/>
  <path class="cls-5" d="M916.07,253.49c-2.02-1.16-4.5-3.21-2.79-5.15,2.12-2.4,5.22-1.33,7.25,1.45-1.49,1.24-2.97,2.47-4.46,3.71Z"/>
</svg>